<?xml version="1.0" encoding="iso-8859-1"?>
<!-- Generator: Adobe Illustrator 19.0.0, SVG Export Plug-In . SVG Version: 6.00 Build 0)  -->
<svg version="1.1" id="Capa_1" xmlns="http://www.w3.org/2000/svg" xmlns:xlink="http://www.w3.org/1999/xlink" x="0px" y="0px"
	 viewBox="0 0 512.018 512.018" style="enable-background:new 0 0 512.018 512.018;" xml:space="preserve">
<g>
	<g>
		<path d="M501.333,448.011H10.667C4.779,448.011,0,452.79,0,458.678v42.667c0,5.888,4.779,10.667,10.667,10.667h490.667
			c5.888,0,10.667-4.779,10.667-10.667v-42.667C512,452.79,507.221,448.011,501.333,448.011z M490.667,490.678H21.333v-21.333
			h469.333V490.678z"/>
	</g>
</g>
<g>
	<g>
		<path d="M480,405.345H32c-5.888,0-10.667,4.779-10.667,10.667v42.667c0,5.888,4.779,10.667,10.667,10.667h448
			c5.888,0,10.667-4.779,10.667-10.667v-42.667C490.667,410.124,485.888,405.345,480,405.345z M469.333,448.011H42.667v-21.333
			h426.667V448.011z"/>
	</g>
</g>
<g>
	<g>
		<path d="M117.333,192.011H74.667c-5.888,0-10.667,4.779-10.667,10.667v213.333c0,5.888,4.779,10.667,10.667,10.667h42.667
			c5.888,0,10.667-4.779,10.667-10.667V202.678C128,196.79,123.221,192.011,117.333,192.011z M106.667,405.345H85.333v-192h21.333
			V405.345z"/>
	</g>
</g>
<g>
	<g>
		<path d="M224,192.011h-42.667c-5.888,0-10.667,4.779-10.667,10.667v213.333c0,5.888,4.779,10.667,10.667,10.667H224
			c5.888,0,10.667-4.779,10.667-10.667V202.678C234.667,196.79,229.888,192.011,224,192.011z M213.333,405.345H192v-192h21.333
			V405.345z"/>
	</g>
</g>
<g>
	<g>
		<path d="M330.667,192.011H288c-5.888,0-10.667,4.779-10.667,10.667v213.333c0,5.888,4.779,10.667,10.667,10.667h42.667
			c5.888,0,10.667-4.779,10.667-10.667V202.678C341.333,196.79,336.555,192.011,330.667,192.011z M320,405.345h-21.333v-192H320
			V405.345z"/>
	</g>
</g>
<g>
	<g>
		<path d="M437.333,192.011h-42.667c-5.888,0-10.667,4.779-10.667,10.667v213.333c0,5.888,4.779,10.667,10.667,10.667h42.667
			c5.888,0,10.667-4.779,10.667-10.667V202.678C448,196.79,443.221,192.011,437.333,192.011z M426.667,405.345h-21.333v-192h21.333
			V405.345z"/>
	</g>
</g>
<g>
	<g>
		<path d="M506.731,150.795l-256-149.333c-3.499-2.027-7.765-1.92-11.115,0.213L4.949,151.009c-4.011,2.56-5.845,7.445-4.523,11.989
			c1.323,4.565,5.483,7.68,10.24,7.68h490.667c4.821,0,9.045-3.221,10.304-7.872C512.917,158.134,510.891,153.206,506.731,150.795z
			 M47.296,149.345L245.589,23.179l216.277,126.165H47.296z"/>
	</g>
</g>
<g>
	<g>
		<path d="M458.667,149.345H53.333c-5.888,0-10.667,4.779-10.667,10.667v42.667c0,5.888,4.779,10.667,10.667,10.667h405.333
			c5.888,0,10.667-4.779,10.667-10.667v-42.667C469.333,154.123,464.555,149.345,458.667,149.345z M448,192.011H64v-21.333h384
			V192.011z"/>
	</g>
</g>
<g>
	<g>
		<path d="M433.557,150.817L250.709,44.15c-3.499-2.005-7.765-1.92-11.115,0.213L71.979,151.03
			c-4.949,3.157-6.421,9.749-3.264,14.72c3.179,4.971,9.813,6.4,14.72,3.264L245.568,65.846l177.237,103.381
			c1.685,1.003,3.541,1.451,5.376,1.451c3.669,0,7.232-1.899,9.216-5.269C440.363,160.31,438.635,153.782,433.557,150.817z"/>
	</g>
</g>
<g>
</g>
<g>
</g>
<g>
</g>
<g>
</g>
<g>
</g>
<g>
</g>
<g>
</g>
<g>
</g>
<g>
</g>
<g>
</g>
<g>
</g>
<g>
</g>
<g>
</g>
<g>
</g>
<g>
</g>
</svg>
